
<svg width="11px" height="7px" viewBox="0 0 11 7" version="1.1" xmlns="http://www.w3.org/2000/svg" xmlns:xlink="http://www.w3.org/1999/xlink">
    <defs>
        <path d="M10.4268125,1.69191406 C10.4268125,1.91363281 10.3487778,2.10195312 10.1927083,2.256875 L6.07552083,6.34378906 C5.91520139,6.50292969 5.72336111,6.5825 5.5,6.5825 C5.27238889,6.5825 5.08267361,6.50292969 4.93085417,6.34378906 L0.813666667,2.256875 C0.653347222,2.10617187 0.5731875,1.91785156 0.5731875,1.69191406 C0.5731875,1.47019531 0.653347222,1.27976562 0.813666667,1.120625 L1.28152083,0.649882812 C1.44585417,0.494960937 1.63769444,0.4175 1.85704167,0.4175 C2.08040278,0.4175 2.27011806,0.494960937 2.4261875,0.649882812 L5.5,3.70109375 L8.5738125,0.649882812 C8.72988194,0.494960937 8.91959722,0.4175 9.14295833,0.4175 C9.36230556,0.4175 9.55414583,0.494960937 9.71847917,0.649882812 L10.1927083,1.120625 C10.3487778,1.28375 10.4268125,1.47417969 10.4268125,1.69191406 Z" id="path-1"></path>
    </defs>
    <g id="Page-1" stroke="none" stroke-width="1" fill="none" fill-rule="evenodd">
        <g id="Select-states" transform="translate(-460.000000, -69.000000)">
            <g id="Input-field/select/open" transform="translate(320.000000, 50.000000)">
                <g id="icon/chevron-down" transform="translate(140.000000, 19.000000)">
                    <mask id="mask-2" fill="white">
                        <use xlink:href="#path-1"></use>
                    </mask>
                    <use id="chevron-down" fill="#000000" fill-rule="nonzero" xlink:href="#path-1"></use>
                    <g id="🎨-color" mask="url(#mask-2)" fill="#717171">
                        <g transform="translate(-2.000000, -4.000000)" id="Rectangle-Copy">
                            <rect x="0" y="0" width="15" height="15"></rect>
                        </g>
                    </g>
                </g>
            </g>
        </g>
    </g>
</svg>
