
<svg width="180px" height="46px" viewBox="0 0 180 46" version="1.1" xmlns="http://www.w3.org/2000/svg" xmlns:xlink="http://www.w3.org/1999/xlink">
    <defs>
        <path d="M0,0.551448 L2.11600928,0.551448 L9.07656613,9.4481424 L9.07656613,0.551448 L11.3225058,0.551448 L11.3225058,13.418568 L9.41067285,13.418568 L2.24593968,4.2645312 L2.24593968,13.418568 L0,13.418568 L0,0.551448 Z M20.4547564,9.3562344 C20.1700696,9.2459448 19.8329466,9.1540368 19.4431555,9.0805104 C19.0533643,9.006984 18.6419954,8.9702208 18.2088167,8.9702208 C17.5034803,8.9702208 16.9529002,9.10509579 16.5568445,9.374616 C16.1607889,9.64413621 15.962877,10.0117682 15.962877,10.477512 L15.962877,10.5142752 C15.962877,10.980019 16.1454756,11.3352434 16.5104408,11.580408 C16.875406,11.8255726 17.3241299,11.94804 17.8561485,11.94804 C18.2273782,11.94804 18.5707657,11.899099 18.8863109,11.8009872 C19.2018561,11.7028754 19.4772622,11.5650134 19.712297,11.3874012 C19.9473318,11.209789 20.1299304,10.9951838 20.2598608,10.7440452 C20.3897912,10.4929066 20.4547564,10.2139658 20.4547564,9.9076824 L20.4547564,9.3562344 Z M20.3990719,13.418568 L20.3990719,12.223764 C20.0649652,12.6159814 19.638051,12.9468502 19.1183295,13.2163704 C18.5986079,13.4858906 17.9675174,13.6207656 17.225058,13.6207656 C16.7547564,13.6207656 16.3092807,13.55643 15.8886311,13.4277588 C15.4679814,13.2990876 15.099768,13.1090678 14.7842227,12.8579292 C14.4686775,12.6067906 14.2150812,12.2943034 14.0232019,11.9204676 C13.8313225,11.5466318 13.7354988,11.1146642 13.7354988,10.6245648 L13.7354988,10.5878016 C13.7354988,10.0485314 13.8345708,9.57980061 14.0324826,9.1816092 C14.2303944,8.78341779 14.5058005,8.45254899 14.8584687,8.1890028 C15.2111369,7.92545661 15.6317865,7.7294628 16.1206497,7.6007916 C16.6095128,7.4721204 17.1385151,7.4077848 17.7076566,7.4077848 C18.3016241,7.4077848 18.8058005,7.444548 19.2204176,7.5180744 C19.6350348,7.5916008 20.0341067,7.68971259 20.4176334,7.81218 L20.4176334,7.628364 C20.4176334,6.95444859 20.2104408,6.43976379 19.7958237,6.0843096 C19.3812065,5.72885541 18.7842227,5.5512432 18.0046404,5.5512432 C17.4477958,5.5512432 16.9529002,5.606388 16.5197216,5.7166776 C16.0865429,5.8269672 15.6473318,5.97402 15.2018561,6.157836 L14.5893271,4.3748208 C15.1338747,4.12965621 15.6907193,3.9336624 16.2598608,3.7866096 C16.8290023,3.6395568 17.5157773,3.5660304 18.3201856,3.5660304 C19.7802784,3.5660304 20.863109,3.9244716 21.5684455,4.641354 C22.2737819,5.3582364 22.6264501,6.36623739 22.6264501,7.6651272 L22.6264501,13.418568 L20.3990719,13.418568 Z M28.5846868,13.5840024 C28.1763341,13.5840024 27.7988399,13.5350614 27.4524362,13.4369496 C27.1060325,13.3388378 26.8058005,13.1796072 26.5522042,12.959028 C26.2986079,12.7384488 26.1037123,12.4473302 25.9675174,12.085902 C25.8313225,11.7244738 25.7633411,11.2741246 25.7633411,10.7348544 L25.7633411,5.6247696 L24.5197216,5.6247696 L24.5197216,3.7130832 L25.7633411,3.7130832 L25.7633411,1.0477512 L28.0092807,1.0477512 L28.0092807,3.7130832 L30.6450116,3.7130832 L30.6450116,5.6247696 L28.0092807,5.6247696 L28.0092807,10.385604 C28.0092807,10.8145846 28.1143852,11.123855 28.324826,11.3138748 C28.5352668,11.5038946 28.8322506,11.5987896 29.2157773,11.5987896 C29.6983759,11.5987896 30.162413,11.4885 30.6078886,11.2679208 L30.6078886,13.0876992 C30.3232019,13.2469298 30.0201856,13.369627 29.6983759,13.4553312 C29.3765661,13.5410354 29.0053364,13.5840024 28.5846868,13.5840024 Z M33.0394432,13.418568 L35.2853828,13.418568 L35.2853828,3.7130832 L33.0394432,3.7130832 L33.0394432,13.418568 Z M32.9466357,2.2241736 L35.3596288,2.2241736 L35.3596288,0.1102896 L32.9466357,0.1102896 L32.9466357,2.2241736 Z M42.9141531,11.7090792 C43.3719258,11.7090792 43.7835267,11.626362 44.1484919,11.4609276 C44.5134571,11.2954932 44.8259861,11.071927 45.0858469,10.7899992 C45.3457077,10.5080714 45.5436195,10.1804194 45.6798144,9.8065836 C45.8160093,9.43274781 45.8839907,9.03754341 45.8839907,8.6209704 L45.8839907,8.5842072 C45.8839907,8.15522661 45.8097448,7.75083141 45.6612529,7.3710216 C45.512761,6.99121179 45.3055684,6.66034299 45.0394432,6.3784152 C44.7733179,6.09648741 44.4577726,5.8729212 44.0928074,5.7074868 C43.7278422,5.5420524 43.3225058,5.4593352 42.8770302,5.4593352 C42.4315545,5.4593352 42.0262181,5.5420524 41.6612529,5.7074868 C41.2962877,5.8729212 40.9837587,6.0935004 40.7238979,6.3692244 C40.4640371,6.6449484 40.2661253,6.97283019 40.1299304,7.35264 C39.9937355,7.73244981 39.9257541,8.13087099 39.9257541,8.547444 L39.9257541,8.5842072 C39.9257541,9.01318779 40,9.41436621 40.1484919,9.788202 C40.2969838,10.1620378 40.5041763,10.4929066 40.7703016,10.7808084 C41.0364269,11.0687102 41.3519722,11.2954932 41.7169374,11.4609276 C42.0819026,11.626362 42.4809745,11.7090792 42.9141531,11.7090792 Z M42.8770302,13.6391472 C42.1345708,13.6391472 41.4447796,13.507489 40.8074246,13.2439428 C40.1700696,12.9803966 39.6194896,12.6219554 39.1554524,12.1686192 C38.6914153,11.715283 38.3294664,11.1822166 38.0696056,10.56942 C37.8097448,9.95662341 37.6798144,9.30729339 37.6798144,8.6209704 L37.6798144,8.5842072 C37.6798144,7.8857064 37.812761,7.23017259 38.0788863,6.617376 C38.3450116,6.00457941 38.7099768,5.468526 39.1740139,5.008986 C39.638051,4.549446 40.1886311,4.18480101 40.8259861,3.9152808 C41.4633411,3.64576059 42.1593968,3.5108856 42.9141531,3.5108856 C43.6689095,3.5108856 44.3649652,3.64254381 45.0023202,3.90609 C45.6396752,4.16963619 46.1902552,4.5310644 46.6542923,4.9906044 C47.1183295,5.4501444 47.4802784,5.9832108 47.7401392,6.5898036 C48,7.1963964 48.1299304,7.8489432 48.1299304,8.547444 L48.1299304,8.5842072 C48.1299304,9.27053019 47.9969838,9.91986021 47.7308585,10.5326568 C47.4647332,11.1454534 47.099768,11.6815068 46.6357309,12.1410468 C46.1716937,12.6005868 45.6178654,12.9652318 44.974478,13.234752 C44.3310905,13.5042722 43.6317865,13.6391472 42.8770302,13.6391472 Z M50.412993,3.7130832 L52.6589327,3.7130832 L52.6589327,5.2203744 C52.8197216,4.98761739 52.9960557,4.7700252 53.187935,4.5678276 C53.3798144,4.36563 53.6025522,4.18480101 53.8561485,4.0255704 C54.1097448,3.86633979 54.3881671,3.7406556 54.6914153,3.6487476 C54.9946636,3.5568396 55.338051,3.5108856 55.7215777,3.5108856 C56.8352668,3.5108856 57.6953596,3.84795819 58.3016241,4.5218736 C58.9078886,5.19578901 59.2111369,6.1026912 59.2111369,7.2423504 L59.2111369,13.418568 L56.9651972,13.418568 L56.9651972,7.904088 C56.9651972,7.14423861 56.7825986,6.55924419 56.4176334,6.1486452 C56.0526682,5.73804621 55.5359629,5.5328616 54.8677494,5.5328616 C54.2118329,5.5328616 53.6798144,5.74425 53.2714617,6.1670268 C52.863109,6.5898036 52.6589327,7.18100181 52.6589327,7.9408512 L52.6589327,13.418568 L50.412993,13.418568 L50.412993,3.7130832 Z M68.2134571,11.4149736 C68.9930394,11.4149736 69.6055684,11.2679208 70.0510441,10.9738152 C70.4965197,10.6797096 70.7192575,10.2385512 70.7192575,9.65034 L70.7192575,9.6135768 C70.7192575,9.0621288 70.499536,8.63636499 70.0603248,8.3360556 C69.6211137,8.03574621 68.949652,7.8857064 68.0464037,7.8857064 L64.4269142,7.8857064 L64.4269142,11.4149736 L68.2134571,11.4149736 Z M67.5452436,5.97402 C68.287703,5.97402 68.8816705,5.82995421 69.3271462,5.5420524 C69.7726218,5.25415059 69.9953596,4.8159792 69.9953596,4.227768 L69.9953596,4.1910048 C69.9953596,3.67632 69.800464,3.27491181 69.4106729,2.98701 C69.0208817,2.69910819 68.4547564,2.5550424 67.712297,2.5550424 L64.4269142,2.5550424 L64.4269142,5.97402 L67.5452436,5.97402 Z M62.1809745,0.551448 L68.0092807,0.551448 C69.5064965,0.551448 70.6387471,0.93125781 71.4060325,1.6911072 C71.987703,2.26714059 72.2784223,2.9778192 72.2784223,3.8233728 L72.2784223,3.860136 C72.2784223,4.25235339 72.2257541,4.59838701 72.1206497,4.8986964 C72.0155452,5.19900579 71.8793503,5.46232221 71.712297,5.6891052 C71.5452436,5.91588819 71.3473318,6.11486901 71.1183295,6.2865072 C70.8893271,6.45814539 70.6573086,6.60519819 70.4222738,6.7276656 C70.8058005,6.86254059 71.1554524,7.01878419 71.4709977,7.1963964 C71.7865429,7.37400861 72.0587007,7.58539701 72.287703,7.8305616 C72.5167053,8.07572619 72.6930394,8.363628 72.8167053,8.6944968 C72.9403712,9.0253656 73.0023202,9.4113792 73.0023202,9.8525376 L73.0023202,9.8893008 C73.0023202,10.4653342 72.887935,10.9738152 72.6589327,11.4149736 C72.4299304,11.856132 72.1051044,12.223764 71.6844548,12.5178696 C71.2638051,12.8119752 70.7563805,13.0355414 70.162413,13.188798 C69.5684455,13.3420546 68.912529,13.418568 68.1948956,13.418568 L62.1809745,13.418568 L62.1809745,0.551448 Z M78.7006961,13.6207656 C77.587007,13.6207656 76.7269142,13.283693 76.1206497,12.6097776 C75.5143852,11.9358622 75.2111369,11.02896 75.2111369,9.8893008 L75.2111369,3.7130832 L77.4570766,3.7130832 L77.4570766,9.2275632 C77.4570766,9.98741259 77.6396752,10.572407 78.0046404,10.983006 C78.3696056,11.393605 78.8863109,11.5987896 79.5545244,11.5987896 C80.2104408,11.5987896 80.7424594,11.3874012 81.1508121,10.9646244 C81.5591647,10.5418476 81.7633411,9.95064939 81.7633411,9.1908 L81.7633411,3.7130832 L84.0092807,3.7130832 L84.0092807,13.418568 L81.7633411,13.418568 L81.7633411,11.9112768 C81.4415313,12.3770206 81.0394432,12.778199 80.5568445,13.1152716 C80.0742459,13.4523442 79.4554524,13.6207656 78.7006961,13.6207656 Z M86.9605568,13.418568 L89.2064965,13.418568 L89.2064965,3.7130832 L86.9605568,3.7130832 L86.9605568,13.418568 Z M86.8677494,2.2241736 L89.2807425,2.2241736 L89.2807425,0.1102896 L86.8677494,0.1102896 L86.8677494,2.2241736 Z M92.2691415,13.418568 L94.5150812,13.418568 L94.5150812,0 L92.2691415,0 L92.2691415,13.418568 Z M102.032483,11.6906976 C102.403712,11.6906976 102.762645,11.6171712 103.109049,11.4701184 C103.455452,11.3230656 103.758701,11.1116772 104.018561,10.8359532 C104.278422,10.5602292 104.485615,10.2323474 104.640371,9.8525376 C104.795128,9.47272779 104.87239,9.04995099 104.87239,8.5842072 L104.87239,8.547444 C104.87239,8.08170021 104.795128,7.6559364 104.640371,7.2699228 C104.485615,6.8839092 104.278422,6.55602741 104.018561,6.2865072 C103.758701,6.01698699 103.455452,5.8085856 103.109049,5.6615328 C102.762645,5.51448 102.403712,5.4409536 102.032483,5.4409536 C101.648956,5.4409536 101.287007,5.51149299 100.946636,5.652342 C100.606265,5.79319101 100.306265,5.99860539 100.046404,6.2681256 C99.7865429,6.53764581 99.5823666,6.8655276 99.4338747,7.2515412 C99.2853828,7.6375548 99.2111369,8.0695224 99.2111369,8.547444 L99.2111369,8.5842072 C99.2111369,9.04995099 99.2853828,9.4757148 99.4338747,9.8617284 C99.5823666,10.247742 99.7865429,10.5756238 100.046404,10.845144 C100.306265,11.1146642 100.606265,11.3230656 100.946636,11.4701184 C101.287007,11.6171712 101.648956,11.6906976 102.032483,11.6906976 Z M101.4942,13.6207656 C100.912529,13.6207656 100.349652,13.510476 99.8051044,13.2898968 C99.2605568,13.0693176 98.7779582,12.7446526 98.3573086,12.315672 C97.9366589,11.8866914 97.5962877,11.3598288 97.3364269,10.7348544 C97.0765661,10.10988 96.9466357,9.3929976 96.9466357,8.5842072 L96.9466357,8.547444 C96.9466357,7.7386536 97.0735499,7.0217712 97.3271462,6.3967968 C97.5807425,5.7718224 97.9180974,5.24495979 98.3387471,4.8159792 C98.7593968,4.38699861 99.2452436,4.0623336 99.7958237,3.8417544 C100.346404,3.6211752 100.912529,3.5108856 101.4942,3.5108856 C102.298608,3.5108856 102.966821,3.68252379 103.49884,4.0255704 C104.030858,4.36861701 104.476334,4.76703819 104.835267,5.2203744 L104.835267,0 L107.081206,0 L107.081206,13.418568 L104.835267,13.418568 L104.835267,11.8009872 C104.476334,12.3034942 104.027842,12.732245 103.489559,13.0876992 C102.951276,13.4431534 102.286079,13.6207656 101.4942,13.6207656 Z M116.603248,7.8857064 C116.566125,7.53025221 116.485615,7.1963964 116.361949,6.8839092 C116.238283,6.571422 116.07123,6.30190179 115.860789,6.0751188 C115.650348,5.84833581 115.399768,5.66773659 115.109049,5.5328616 C114.818329,5.39798661 114.487239,5.330664 114.116009,5.330664 C113.42297,5.330664 112.850812,5.56663779 112.399072,6.0383556 C111.947332,6.51007341 111.672158,7.12585701 111.573086,7.8857064 L116.603248,7.8857064 Z M114.37587,13.6391472 C113.670534,13.6391472 113.011601,13.5166798 112.399072,13.2715152 C111.786543,13.0263506 111.254524,12.683304 110.802784,12.2421456 C110.351044,11.8009872 109.99536,11.2709078 109.735499,10.6521372 C109.475638,10.0333666 109.345708,9.35003061 109.345708,8.6025888 L109.345708,8.5658256 C109.345708,7.8673248 109.463341,7.21179099 109.698376,6.5989944 C109.933411,5.98619781 110.264501,5.4501444 110.691415,4.9906044 C111.118329,4.5310644 111.622506,4.16963619 112.204176,3.90609 C112.785847,3.64254381 113.429234,3.5108856 114.134571,3.5108856 C114.914153,3.5108856 115.597912,3.65173461 116.185615,3.9336624 C116.773318,4.21559019 117.262181,4.5954 117.651972,5.0733216 C118.041763,5.5512432 118.335731,6.10567821 118.533643,6.7368564 C118.731555,7.36803459 118.830626,8.0327592 118.830626,8.73126 C118.830626,8.82937179 118.82761,8.93047059 118.821346,9.0345564 C118.815081,9.13864221 118.8058,9.2459448 118.793503,9.3562344 L111.591647,9.3562344 C111.715313,10.152847 112.034107,10.7624268 112.547564,11.1852036 C113.061021,11.6079804 113.682831,11.8193688 114.412993,11.8193688 C114.969838,11.8193688 115.452436,11.721257 115.860789,11.5252632 C116.269142,11.3292694 116.67123,11.0411378 117.067285,10.661328 L118.385151,11.8193688 C117.914849,12.3708168 117.354988,12.8119752 116.705336,13.142844 C116.055684,13.4737128 115.279118,13.6391472 114.37587,13.6391472 Z M121.095128,3.7130832 L123.341067,3.7130832 L123.341067,5.9004936 C123.650348,5.1652296 124.089791,4.5770184 124.658933,4.13586 C125.228074,3.6947016 125.94594,3.492504 126.812065,3.5292672 L126.812065,5.882112 L126.682135,5.882112 C126.187239,5.882112 125.735499,5.96184219 125.327146,6.1210728 C124.918794,6.28030341 124.566125,6.51926421 124.269142,6.8379552 C123.972158,7.15664619 123.743155,7.55782461 123.582367,8.04195 C123.421578,8.52607539 123.341067,9.08671419 123.341067,9.7238664 L123.341067,13.418568 L121.095128,13.418568 L121.095128,3.7130832 Z" id="path-1"></path>
    </defs>
    <g id="Page-1" stroke="none" stroke-width="1" fill="none" fill-rule="evenodd">
        <g id="Custom-fields---nav-expanded" transform="translate(-30.000000, -30.000000)">
            <g id="nav/primary/expanded">
                <g id="nationbuilder-horizontal-black" transform="translate(30.000000, 30.000000)">
                    <g id="NationBuilder" transform="translate(53.178654, 16.129854)">
                        <g id="Fill-26-Clipped">
                            <mask id="mask-2" fill="white">
                                <use xlink:href="#path-1"></use>
                            </mask>
                            <g id="path-1"></g>
                            <polygon id="Fill-26" fill="#FFFFFF" fill-rule="nonzero" mask="url(#mask-2)" points="-0.0139211137 13.6575288 126.835267 13.6575288 126.835267 -0.0183816 -0.0139211137 -0.0183816"></polygon>
                        </g>
                    </g>
                    <g id="Mark" fill-rule="nonzero">
                        <g id="Circle" transform="translate(23.500000, 23.000000) scale(-1, 1) rotate(-180.000000) translate(-23.500000, -23.000000) ">
                            <path d="M23.2178503,0 C31.4988819,0 39.1504113,4.38357934 43.2909271,11.5 C47.4314427,18.6164207 47.4314427,27.3835793 43.2909271,34.5 C39.1504113,41.6164207 31.4988819,46 23.2178503,46 C14.9368187,46 7.28528928,41.6164207 3.14477348,34.5 C-0.995742302,27.3835793 -0.995742302,18.6164207 3.14477348,11.5 C7.28528928,4.38357934 14.9368187,0 23.2178503,0 L23.2178503,2.20664207 C15.7313941,2.20664207 8.8137135,6.17011069 5.07005773,12.603321 C1.32640196,19.0365313 1.32640196,26.9634687 5.07005773,33.396679 C8.8137135,39.8298893 15.7313941,43.7933579 23.2178503,43.7933579 C30.7043065,43.7933579 37.6219871,39.8298893 41.3656429,33.396679 C45.1092986,26.9634687 45.1092986,19.0365313 41.3656429,12.603321 C37.6219871,6.17011069 30.7043065,2.20664207 23.2178503,2.20664207 L23.2178503,0 Z" id="Base-plate" fill-opacity="0.002" fill="#455A64"></path>
                            <path d="M23.2178503,0 C30.2715239,0 36.9420222,3.18690037 41.3399838,8.65937267 L39.6011554,10.0351292 C35.6248575,5.08800738 29.5949801,2.20664207 23.2178503,2.20664207 L23.2178503,0 Z" id="Segment-1" fill="#CE001B"></path>
                            <path d="M41.3399838,8.65937267 C45.7379454,14.131845 47.3852566,21.2940959 45.8157779,28.1177122 L43.6475879,27.6271587 C45.0665335,21.4578967 43.5774532,14.9822509 39.6011554,10.0351292 L41.3399838,8.65937267 Z" id="Segment-2" fill="#780011"></path>
                            <path d="M45.8157779,28.1177122 C44.2462992,34.9413284 39.6293803,40.6853875 33.2744883,43.7220664 L32.3097079,41.7343912 C38.0556251,38.9888192 42.2286423,33.7964207 43.6475879,27.6271587 L45.8157779,28.1177122 Z" id="Segment-3" fill="#6D7096"></path>
                            <path d="M33.2744883,43.7220664 C26.9195963,46.7587452 19.5161043,46.7587452 13.1612123,43.7220664 L14.1259927,41.7343912 C19.8719098,44.4799631 26.5637908,44.4799631 32.3097079,41.7343912 L33.2744883,43.7220664 Z" id="Segment-4" fill="#60BBD5"></path>
                            <path d="M13.1612123,43.7220664 C6.80632028,40.6853875 2.18940142,34.9413284 0.61992271,28.1177122 L2.78811265,27.6271587 C4.20705826,33.7964207 8.3800755,38.9888192 14.1259927,41.7343912 L13.1612123,43.7220664 Z" id="Segment-5" fill="#0F99BE"></path>
                            <path d="M0.61992271,28.1177122 C-0.949556005,21.2940959 0.697755169,14.131845 5.0957168,8.65937267 L6.83454524,10.0351292 C2.85824739,14.9822509 1.36916704,21.4578967 2.78811265,27.6271587 L0.61992271,28.1177122 Z" id="Segment-6" fill="#8C9D26"></path>
                            <path d="M5.0957168,8.65937267 C9.49367838,3.18690037 16.1641768,0 23.2178503,0 L23.2178503,2.20664207 C16.8407204,2.20664207 10.8108431,5.08800738 6.83454524,10.0351292 L5.0957168,8.65937267 Z" id="Segment-7" fill="#FCD813"></path>
                        </g>
                        <path d="M12.9466357,28.72125 L12.9466357,26.699274 L16.9741267,26.699274 L18.2857692,19.208772 L14.2923434,19.208772 L14.2923434,17.140842 L18.6426691,17.140842 L19.7099545,10.661328 L22.1774004,10.661328 L21.0637113,17.140842 L27.3201633,17.140842 L28.3874487,10.661328 L30.8529785,10.661328 L29.7856931,17.140842 L33.5034803,17.140842 L33.5034803,19.208772 L29.4295856,19.208772 L28.1179431,26.699274 L32.1577726,26.699274 L32.1577726,28.72125 L27.806758,28.72125 L26.6930689,35.338626 L24.2736751,35.338626 L25.3873642,28.72125 L19.1292638,28.72125 L18.0155747,35.338626 L15.5980516,35.338626 L16.665337,28.72125 L12.9466357,28.72125 Z M26.9663891,19.208772 L20.6615228,19.208772 L19.4373232,26.699274 L25.7421895,26.699274 L26.9663891,19.208772 Z" id="Octothorpe" fill="#FFFFFF"></path>
                    </g>
                </g>
            </g>
        </g>
    </g>
</svg>
